<mxfile host="app.diagrams.net" agent="Mozilla/5.0 (X11; Linux x86_64) AppleWebKit/537.36 (KHTML, like Gecko) Chrome/123.0.0.0 Safari/537.36" version="24.7.17">
  <diagram name="Page-1" id="5Q91NoFubbgt4U8uIhDs">
    <mxGraphModel dx="2537" dy="965" grid="1" gridSize="10" guides="1" tooltips="1" connect="1" arrows="1" fold="1" page="1" pageScale="1" pageWidth="850" pageHeight="1100" math="0" shadow="0">
      <root>
        <mxCell id="0" />
        <mxCell id="1" parent="0" />
        <mxCell id="5EtZExTbexmg5QgoC88u-1" value="" style="shape=image;editableCssRules=.*;verticalLabelPosition=bottom;labelBackgroundColor=default;verticalAlign=top;aspect=fixed;imageAspect=0;image=data:image/svg+xml,PHN2ZyB4bWxucz0iaHR0cDovL3d3dy53My5vcmcvMjAwMC9zdmciIHZpZXdCb3g9Ii0wLjUgLTAuNSAyOSAyOCIgaGVpZ2h0PSIyOCIgd2lkdGg9IjI5Ij4mI3hhOwkgIDxzdHlsZSB0eXBlPSJ0ZXh0L2NzcyI+LnN0MCB7IHN0b3AtY29sb3I6IHJnYigzNSwgMTQ5LCAyNTUpOyB9IC5zdDEgeyBzdG9wLWNvbG9yOiByZ2IoMCwgODcsIDIxMCk7IH0gPC9zdHlsZT4mI3hhOwk8ZGVmcz4mI3hhOwkJPGxpbmVhckdyYWRpZW50IGdyYWRpZW50VW5pdHM9InVzZXJTcGFjZU9uVXNlIiB5Mj0iMjIuMDI1IiB4Mj0iMjQuOTcyIiB5MT0iMy40NzQiIHgxPSIzLjc0NiIgaWQ9IkEiPiYjeGE7CQkJPHN0b3AgY2xhc3M9InN0MCIvPiYjeGE7CQkJPHN0b3AgY2xhc3M9InN0MSIgb2Zmc2V0PSIxIi8+JiN4YTsJCTwvbGluZWFyR3JhZGllbnQ+JiN4YTsJPC9kZWZzPiYjeGE7CTxwYXRoIGZpbGw9InVybCgjQSkiIGQ9Ik0yNC4yNTUgMTQuMTg1Yy40MDIgMCAuNzEyLjEyOC45MzIuMzg0LjI1Ni4yMTkuMzg0LjUzLjM4NC45MzF2MTAuNjg1YzAgLjg3Ny0uNDM4IDEuMzE1LTEuMzE1IDEuMzE1SDIuOTRjLS45MTMgMC0xLjM3LS40MzgtMS4zNy0xLjMxNXYtMTZjMC0uNDAyLjEyOC0uNzEyLjM4NC0uOTMxLjI1Ni0uMjU2LjU4NC0uMzg0Ljk4Ni0uMzg0aDUuMjA1VjYuMTg1YzAtLjM2NS4xNjQtLjcxMi40OTMtMS4wNDFsMy42MTYtMi4zMDFWLjg3YzAtLjQwMi4xMS0uNzMxLjMyOS0uOTg2LjI1Ni0uMjU2LjU4NS0uMzg0Ljk4Ni0uMzg0LjkxMyAwIDEuMzcuNDU3IDEuMzcgMS4zN3YxLjk3M2wzLjI4OCAyLjMwMWMuMzY1LjIxOS41NDguNTY2LjU0OCAxLjA0MXY4em0tNS40NzkgMi42ODV2Mi42M2g0LjE2NHYtMi42M3ptLTIuNjMgMGgtNS4zN3YyLjYzaDUuMzd6bTAtMi42ODVWMTEuNWgtNS4zN3YyLjY4NXptLTUuMzctNS4zMTVoNS4zN1Y2Ljg0MkwxMy40NiA1LjE0NGwtMi42ODUgMS42OTl6bS02LjUyMSA1LjMxNWgzLjg5VjExLjVoLTMuODl6bTAgMi42ODV2Mi42M2gzLjg5di0yLjYzem0zLjg5IDh2LTIuNjg1aC0zLjg5djIuNjg1em04IDB2LTIuNjg1aC01LjM3djIuNjg1em02Ljc5NCAwdi0yLjY4NWgtNC4xNjR2Mi42ODV6Ii8+JiN4YTs8L3N2Zz4=;" vertex="1" parent="1">
          <mxGeometry x="110" y="110" width="41.43" height="40" as="geometry" />
        </mxCell>
        <mxCell id="5EtZExTbexmg5QgoC88u-3" value="" style="endArrow=none;dashed=1;html=1;dashPattern=1 3;strokeWidth=2;rounded=0;" edge="1" parent="1" source="5EtZExTbexmg5QgoC88u-53">
          <mxGeometry width="50" height="50" relative="1" as="geometry">
            <mxPoint x="130" y="720" as="sourcePoint" />
            <mxPoint x="130" y="170" as="targetPoint" />
          </mxGeometry>
        </mxCell>
        <mxCell id="5EtZExTbexmg5QgoC88u-4" value="Front End" style="rounded=1;whiteSpace=wrap;html=1;" vertex="1" parent="1">
          <mxGeometry x="200" y="120" width="90" height="30" as="geometry" />
        </mxCell>
        <mxCell id="5EtZExTbexmg5QgoC88u-5" value="App.js" style="rounded=1;whiteSpace=wrap;html=1;" vertex="1" parent="1">
          <mxGeometry x="335" y="120" width="90" height="30" as="geometry" />
        </mxCell>
        <mxCell id="5EtZExTbexmg5QgoC88u-7" value="Metamask" style="rounded=1;whiteSpace=wrap;html=1;" vertex="1" parent="1">
          <mxGeometry x="536" y="120" width="90" height="30" as="geometry" />
        </mxCell>
        <mxCell id="5EtZExTbexmg5QgoC88u-8" value="Ganache" style="rounded=1;whiteSpace=wrap;html=1;" vertex="1" parent="1">
          <mxGeometry x="676" y="120" width="90" height="30" as="geometry" />
        </mxCell>
        <mxCell id="5EtZExTbexmg5QgoC88u-9" value="" style="endArrow=none;dashed=1;html=1;dashPattern=1 3;strokeWidth=2;rounded=0;" edge="1" parent="1">
          <mxGeometry width="50" height="50" relative="1" as="geometry">
            <mxPoint x="244.5" y="720" as="sourcePoint" />
            <mxPoint x="244.5" y="170" as="targetPoint" />
          </mxGeometry>
        </mxCell>
        <mxCell id="5EtZExTbexmg5QgoC88u-10" value="" style="endArrow=none;dashed=1;html=1;dashPattern=1 3;strokeWidth=2;rounded=0;" edge="1" parent="1" source="5EtZExTbexmg5QgoC88u-59">
          <mxGeometry width="50" height="50" relative="1" as="geometry">
            <mxPoint x="379.5" y="720" as="sourcePoint" />
            <mxPoint x="379.5" y="170" as="targetPoint" />
          </mxGeometry>
        </mxCell>
        <mxCell id="5EtZExTbexmg5QgoC88u-12" value="" style="endArrow=none;dashed=1;html=1;dashPattern=1 3;strokeWidth=2;rounded=0;" edge="1" parent="1" source="5EtZExTbexmg5QgoC88u-47">
          <mxGeometry width="50" height="50" relative="1" as="geometry">
            <mxPoint x="586" y="720" as="sourcePoint" />
            <mxPoint x="586" y="170" as="targetPoint" />
          </mxGeometry>
        </mxCell>
        <mxCell id="5EtZExTbexmg5QgoC88u-13" value="" style="endArrow=none;dashed=1;html=1;dashPattern=1 3;strokeWidth=2;rounded=0;" edge="1" parent="1" source="5EtZExTbexmg5QgoC88u-72">
          <mxGeometry width="50" height="50" relative="1" as="geometry">
            <mxPoint x="726" y="720" as="sourcePoint" />
            <mxPoint x="726" y="170" as="targetPoint" />
          </mxGeometry>
        </mxCell>
        <mxCell id="5EtZExTbexmg5QgoC88u-14" value="&lt;b&gt;&lt;font style=&quot;font-size: 18px;&quot;&gt;Add Minter Sequence Diagram&lt;/font&gt;&lt;/b&gt;" style="text;html=1;align=center;verticalAlign=middle;resizable=0;points=[];autosize=1;strokeColor=none;fillColor=none;" vertex="1" parent="1">
          <mxGeometry x="305" y="32" width="280" height="40" as="geometry" />
        </mxCell>
        <mxCell id="5EtZExTbexmg5QgoC88u-15" value="" style="endArrow=classic;html=1;rounded=0;" edge="1" parent="1">
          <mxGeometry width="50" height="50" relative="1" as="geometry">
            <mxPoint x="130" y="220" as="sourcePoint" />
            <mxPoint x="240" y="220" as="targetPoint" />
          </mxGeometry>
        </mxCell>
        <mxCell id="5EtZExTbexmg5QgoC88u-16" value="Fill Desired Account&lt;br&gt;&amp;nbsp;Address" style="text;html=1;align=center;verticalAlign=middle;resizable=0;points=[];autosize=1;strokeColor=none;fillColor=none;" vertex="1" parent="1">
          <mxGeometry x="121" y="186" width="130" height="40" as="geometry" />
        </mxCell>
        <mxCell id="5EtZExTbexmg5QgoC88u-17" value="Press &quot;Add Minter&quot; &lt;br&gt;Button" style="text;html=1;align=center;verticalAlign=middle;resizable=0;points=[];autosize=1;strokeColor=none;fillColor=none;" vertex="1" parent="1">
          <mxGeometry x="125" y="221" width="120" height="40" as="geometry" />
        </mxCell>
        <mxCell id="5EtZExTbexmg5QgoC88u-18" value="" style="endArrow=classic;html=1;rounded=0;exitX=1.008;exitY=0.725;exitDx=0;exitDy=0;exitPerimeter=0;" edge="1" parent="1" source="5EtZExTbexmg5QgoC88u-17">
          <mxGeometry width="50" height="50" relative="1" as="geometry">
            <mxPoint x="400" y="450" as="sourcePoint" />
            <mxPoint x="380" y="250" as="targetPoint" />
          </mxGeometry>
        </mxCell>
        <mxCell id="5EtZExTbexmg5QgoC88u-19" value="Trigger Add Minter &lt;br&gt;Event Listener" style="text;html=1;align=center;verticalAlign=middle;resizable=0;points=[];autosize=1;strokeColor=none;fillColor=none;" vertex="1" parent="1">
          <mxGeometry x="250" y="213" width="120" height="40" as="geometry" />
        </mxCell>
        <mxCell id="5EtZExTbexmg5QgoC88u-20" value="" style="endArrow=classic;html=1;rounded=0;" edge="1" parent="1">
          <mxGeometry width="50" height="50" relative="1" as="geometry">
            <mxPoint x="380" y="280" as="sourcePoint" />
            <mxPoint x="580" y="280" as="targetPoint" />
          </mxGeometry>
        </mxCell>
        <mxCell id="5EtZExTbexmg5QgoC88u-21" value="Trigger Metamask&amp;nbsp;&lt;br&gt;Account &amp;amp; Wallet&lt;br&gt;Management" style="text;html=1;align=center;verticalAlign=middle;resizable=0;points=[];autosize=1;strokeColor=none;fillColor=none;" vertex="1" parent="1">
          <mxGeometry x="425" y="226" width="120" height="60" as="geometry" />
        </mxCell>
        <mxCell id="5EtZExTbexmg5QgoC88u-22" value="" style="endArrow=classic;html=1;rounded=0;" edge="1" parent="1">
          <mxGeometry width="50" height="50" relative="1" as="geometry">
            <mxPoint x="586" y="323" as="sourcePoint" />
            <mxPoint x="726" y="323" as="targetPoint" />
          </mxGeometry>
        </mxCell>
        <mxCell id="5EtZExTbexmg5QgoC88u-23" value="Retrieve Wallet &lt;br&gt;Balance info" style="text;html=1;align=center;verticalAlign=middle;resizable=0;points=[];autosize=1;strokeColor=none;fillColor=none;" vertex="1" parent="1">
          <mxGeometry x="605" y="287" width="100" height="40" as="geometry" />
        </mxCell>
        <mxCell id="5EtZExTbexmg5QgoC88u-25" value="&amp;amp; Account Info" style="text;html=1;align=center;verticalAlign=middle;resizable=0;points=[];autosize=1;strokeColor=none;fillColor=none;" vertex="1" parent="1">
          <mxGeometry x="605" y="317" width="100" height="30" as="geometry" />
        </mxCell>
        <mxCell id="5EtZExTbexmg5QgoC88u-26" value="" style="endArrow=classic;html=1;rounded=0;" edge="1" parent="1">
          <mxGeometry width="50" height="50" relative="1" as="geometry">
            <mxPoint x="724" y="378" as="sourcePoint" />
            <mxPoint x="134" y="378" as="targetPoint" />
          </mxGeometry>
        </mxCell>
        <mxCell id="5EtZExTbexmg5QgoC88u-27" value="Confirm &amp;amp; Sign &lt;br&gt;Transaction Request" style="text;html=1;align=center;verticalAlign=middle;resizable=0;points=[];autosize=1;strokeColor=none;fillColor=none;" vertex="1" parent="1">
          <mxGeometry x="340" y="341" width="130" height="40" as="geometry" />
        </mxCell>
        <mxCell id="5EtZExTbexmg5QgoC88u-28" value="" style="endArrow=classic;html=1;rounded=0;" edge="1" parent="1">
          <mxGeometry width="50" height="50" relative="1" as="geometry">
            <mxPoint x="128" y="516" as="sourcePoint" />
            <mxPoint x="378" y="516" as="targetPoint" />
          </mxGeometry>
        </mxCell>
        <mxCell id="5EtZExTbexmg5QgoC88u-29" value="Confirm Button Pressed" style="text;html=1;align=center;verticalAlign=middle;resizable=0;points=[];autosize=1;strokeColor=none;fillColor=none;" vertex="1" parent="1">
          <mxGeometry x="159" y="510" width="150" height="30" as="geometry" />
        </mxCell>
        <mxCell id="5EtZExTbexmg5QgoC88u-30" value="Transaction signed" style="text;html=1;align=center;verticalAlign=middle;resizable=0;points=[];autosize=1;strokeColor=none;fillColor=none;" vertex="1" parent="1">
          <mxGeometry x="175" y="525" width="120" height="30" as="geometry" />
        </mxCell>
        <mxCell id="5EtZExTbexmg5QgoC88u-33" value="" style="endArrow=classic;html=1;rounded=0;" edge="1" parent="1">
          <mxGeometry width="50" height="50" relative="1" as="geometry">
            <mxPoint x="378" y="556" as="sourcePoint" />
            <mxPoint x="578" y="556" as="targetPoint" />
          </mxGeometry>
        </mxCell>
        <mxCell id="5EtZExTbexmg5QgoC88u-34" value="Call of the AddMinter&amp;nbsp;&lt;br&gt;Smart Contract Method" style="text;html=1;align=center;verticalAlign=middle;resizable=0;points=[];autosize=1;strokeColor=none;fillColor=none;" vertex="1" parent="1">
          <mxGeometry x="408" y="518" width="150" height="40" as="geometry" />
        </mxCell>
        <mxCell id="5EtZExTbexmg5QgoC88u-35" value="Propagate call" style="text;html=1;align=center;verticalAlign=middle;resizable=0;points=[];autosize=1;strokeColor=none;fillColor=none;" vertex="1" parent="1">
          <mxGeometry x="603" y="554" width="100" height="30" as="geometry" />
        </mxCell>
        <mxCell id="5EtZExTbexmg5QgoC88u-36" value="" style="endArrow=classic;html=1;rounded=0;" edge="1" parent="1">
          <mxGeometry width="50" height="50" relative="1" as="geometry">
            <mxPoint x="582" y="586" as="sourcePoint" />
            <mxPoint x="722" y="586" as="targetPoint" />
          </mxGeometry>
        </mxCell>
        <mxCell id="5EtZExTbexmg5QgoC88u-39" value="" style="endArrow=none;dashed=1;html=1;dashPattern=1 3;strokeWidth=2;rounded=0;" edge="1" parent="1" target="5EtZExTbexmg5QgoC88u-38">
          <mxGeometry width="50" height="50" relative="1" as="geometry">
            <mxPoint x="726" y="720" as="sourcePoint" />
            <mxPoint x="726" y="170" as="targetPoint" />
          </mxGeometry>
        </mxCell>
        <mxCell id="5EtZExTbexmg5QgoC88u-38" value="" style="rounded=1;whiteSpace=wrap;html=1;rotation=90;" vertex="1" parent="1">
          <mxGeometry x="700.5" y="603.5" width="50" height="20" as="geometry" />
        </mxCell>
        <mxCell id="5EtZExTbexmg5QgoC88u-40" value="" style="endArrow=classic;html=1;rounded=0;entryX=0.75;entryY=0;entryDx=0;entryDy=0;exitX=0.339;exitY=0.039;exitDx=0;exitDy=0;exitPerimeter=0;" edge="1" parent="1" source="5EtZExTbexmg5QgoC88u-38" target="5EtZExTbexmg5QgoC88u-38">
          <mxGeometry width="50" height="50" relative="1" as="geometry">
            <mxPoint x="738" y="606" as="sourcePoint" />
            <mxPoint x="788" y="556" as="targetPoint" />
            <Array as="points">
              <mxPoint x="768" y="606" />
              <mxPoint x="768" y="627" />
            </Array>
          </mxGeometry>
        </mxCell>
        <mxCell id="5EtZExTbexmg5QgoC88u-42" value="Grant Minter Role &lt;br&gt;to Account" style="text;html=1;align=center;verticalAlign=middle;resizable=0;points=[];autosize=1;strokeColor=none;fillColor=none;" vertex="1" parent="1">
          <mxGeometry x="757" y="599" width="120" height="40" as="geometry" />
        </mxCell>
        <mxCell id="5EtZExTbexmg5QgoC88u-43" value="" style="endArrow=classic;html=1;rounded=0;exitX=1;exitY=0.5;exitDx=0;exitDy=0;" edge="1" parent="1">
          <mxGeometry width="50" height="50" relative="1" as="geometry">
            <mxPoint x="726.5" y="638.5" as="sourcePoint" />
            <mxPoint x="379" y="636" as="targetPoint" />
          </mxGeometry>
        </mxCell>
        <mxCell id="5EtZExTbexmg5QgoC88u-44" value="Transaction Successful Message" style="text;html=1;align=center;verticalAlign=middle;resizable=0;points=[];autosize=1;strokeColor=none;fillColor=none;" vertex="1" parent="1">
          <mxGeometry x="468" y="609" width="200" height="30" as="geometry" />
        </mxCell>
        <mxCell id="5EtZExTbexmg5QgoC88u-45" value="" style="endArrow=classic;html=1;rounded=0;" edge="1" parent="1">
          <mxGeometry width="50" height="50" relative="1" as="geometry">
            <mxPoint x="378" y="666" as="sourcePoint" />
            <mxPoint x="128" y="666" as="targetPoint" />
          </mxGeometry>
        </mxCell>
        <mxCell id="5EtZExTbexmg5QgoC88u-46" value="Mint Result Printed on Screen" style="text;html=1;align=center;verticalAlign=middle;resizable=0;points=[];autosize=1;strokeColor=none;fillColor=none;" vertex="1" parent="1">
          <mxGeometry x="167" y="641" width="180" height="30" as="geometry" />
        </mxCell>
        <mxCell id="5EtZExTbexmg5QgoC88u-48" value="" style="endArrow=none;dashed=1;html=1;dashPattern=1 3;strokeWidth=2;rounded=0;" edge="1" parent="1" source="5EtZExTbexmg5QgoC88u-49" target="5EtZExTbexmg5QgoC88u-47">
          <mxGeometry width="50" height="50" relative="1" as="geometry">
            <mxPoint x="586" y="720" as="sourcePoint" />
            <mxPoint x="586" y="170" as="targetPoint" />
          </mxGeometry>
        </mxCell>
        <mxCell id="5EtZExTbexmg5QgoC88u-47" value="" style="rounded=1;whiteSpace=wrap;html=1;rotation=90;" vertex="1" parent="1">
          <mxGeometry x="565" y="292" width="40" height="20" as="geometry" />
        </mxCell>
        <mxCell id="5EtZExTbexmg5QgoC88u-50" value="" style="endArrow=none;dashed=1;html=1;dashPattern=1 3;strokeWidth=2;rounded=0;" edge="1" parent="1" target="5EtZExTbexmg5QgoC88u-49">
          <mxGeometry width="50" height="50" relative="1" as="geometry">
            <mxPoint x="586" y="720" as="sourcePoint" />
            <mxPoint x="585" y="322" as="targetPoint" />
          </mxGeometry>
        </mxCell>
        <mxCell id="5EtZExTbexmg5QgoC88u-49" value="" style="rounded=1;whiteSpace=wrap;html=1;rotation=90;" vertex="1" parent="1">
          <mxGeometry x="570.2" y="563.3" width="25.62" height="20" as="geometry" />
        </mxCell>
        <mxCell id="5EtZExTbexmg5QgoC88u-52" value="" style="endArrow=none;dashed=1;html=1;dashPattern=1 3;strokeWidth=2;rounded=0;" edge="1" parent="1" source="5EtZExTbexmg5QgoC88u-56" target="5EtZExTbexmg5QgoC88u-51">
          <mxGeometry width="50" height="50" relative="1" as="geometry">
            <mxPoint x="377.5" y="806" as="sourcePoint" />
            <mxPoint x="377.5" y="256" as="targetPoint" />
          </mxGeometry>
        </mxCell>
        <mxCell id="5EtZExTbexmg5QgoC88u-51" value="" style="rounded=1;whiteSpace=wrap;html=1;rotation=90;" vertex="1" parent="1">
          <mxGeometry x="360.5" y="528" width="35" height="20" as="geometry" />
        </mxCell>
        <mxCell id="5EtZExTbexmg5QgoC88u-54" value="" style="endArrow=none;dashed=1;html=1;dashPattern=1 3;strokeWidth=2;rounded=0;" edge="1" parent="1" target="5EtZExTbexmg5QgoC88u-53">
          <mxGeometry width="50" height="50" relative="1" as="geometry">
            <mxPoint x="130" y="720" as="sourcePoint" />
            <mxPoint x="130" y="170" as="targetPoint" />
          </mxGeometry>
        </mxCell>
        <mxCell id="5EtZExTbexmg5QgoC88u-53" value="" style="rounded=1;whiteSpace=wrap;html=1;rotation=90;" vertex="1" parent="1">
          <mxGeometry x="-93.7" y="438.69" width="442.71" height="9.46" as="geometry" />
        </mxCell>
        <mxCell id="5EtZExTbexmg5QgoC88u-57" value="" style="endArrow=none;dashed=1;html=1;dashPattern=1 3;strokeWidth=2;rounded=0;" edge="1" parent="1" target="5EtZExTbexmg5QgoC88u-56">
          <mxGeometry width="50" height="50" relative="1" as="geometry">
            <mxPoint x="379.5" y="720" as="sourcePoint" />
            <mxPoint x="380" y="470" as="targetPoint" />
          </mxGeometry>
        </mxCell>
        <mxCell id="5EtZExTbexmg5QgoC88u-56" value="" style="rounded=1;whiteSpace=wrap;html=1;rotation=90;" vertex="1" parent="1">
          <mxGeometry x="362.68" y="645.69" width="30.63" height="20" as="geometry" />
        </mxCell>
        <mxCell id="5EtZExTbexmg5QgoC88u-58" value="" style="rounded=1;whiteSpace=wrap;html=1;rotation=90;" vertex="1" parent="1">
          <mxGeometry x="232.19" y="228" width="25.62" height="14" as="geometry" />
        </mxCell>
        <mxCell id="5EtZExTbexmg5QgoC88u-60" value="" style="endArrow=none;dashed=1;html=1;dashPattern=1 3;strokeWidth=2;rounded=0;" edge="1" parent="1" source="5EtZExTbexmg5QgoC88u-51" target="5EtZExTbexmg5QgoC88u-59">
          <mxGeometry width="50" height="50" relative="1" as="geometry">
            <mxPoint x="380" y="435" as="sourcePoint" />
            <mxPoint x="379.5" y="170" as="targetPoint" />
          </mxGeometry>
        </mxCell>
        <mxCell id="5EtZExTbexmg5QgoC88u-59" value="" style="rounded=1;whiteSpace=wrap;html=1;rotation=90;" vertex="1" parent="1">
          <mxGeometry x="367.18" y="258" width="25.62" height="14" as="geometry" />
        </mxCell>
        <mxCell id="5EtZExTbexmg5QgoC88u-61" value="" style="rounded=1;whiteSpace=wrap;html=1;rotation=90;" vertex="1" parent="1">
          <mxGeometry x="703.75" y="340.25" width="47.5" height="20" as="geometry" />
        </mxCell>
        <mxCell id="5EtZExTbexmg5QgoC88u-66" value="alt" style="shape=umlFrame;whiteSpace=wrap;html=1;pointerEvents=0;" vertex="1" parent="1">
          <mxGeometry x="-15" y="340.2" width="880" height="159.8" as="geometry" />
        </mxCell>
        <mxCell id="5EtZExTbexmg5QgoC88u-68" value="[Account &amp;amp; Balance OK]" style="text;html=1;align=center;verticalAlign=middle;resizable=0;points=[];autosize=1;strokeColor=none;fillColor=none;" vertex="1" parent="1">
          <mxGeometry x="-22" y="369" width="150" height="30" as="geometry" />
        </mxCell>
        <mxCell id="5EtZExTbexmg5QgoC88u-70" value="" style="endArrow=none;dashed=1;html=1;rounded=0;exitX=-0.002;exitY=0.55;exitDx=0;exitDy=0;exitPerimeter=0;entryX=0.998;entryY=0.558;entryDx=0;entryDy=0;entryPerimeter=0;" edge="1" parent="1">
          <mxGeometry width="50" height="50" relative="1" as="geometry">
            <mxPoint x="-16.76000000000022" y="414.09000000000015" as="sourcePoint" />
            <mxPoint x="863.2399999999998" y="415.36840000000007" as="targetPoint" />
          </mxGeometry>
        </mxCell>
        <mxCell id="5EtZExTbexmg5QgoC88u-71" value="[Else]" style="text;html=1;align=center;verticalAlign=middle;resizable=0;points=[];autosize=1;strokeColor=none;fillColor=none;" vertex="1" parent="1">
          <mxGeometry x="-22" y="428.16" width="50" height="30" as="geometry" />
        </mxCell>
        <mxCell id="5EtZExTbexmg5QgoC88u-73" value="" style="endArrow=none;dashed=1;html=1;dashPattern=1 3;strokeWidth=2;rounded=0;" edge="1" parent="1" source="5EtZExTbexmg5QgoC88u-38" target="5EtZExTbexmg5QgoC88u-72">
          <mxGeometry width="50" height="50" relative="1" as="geometry">
            <mxPoint x="727" y="546" as="sourcePoint" />
            <mxPoint x="726" y="170" as="targetPoint" />
          </mxGeometry>
        </mxCell>
        <mxCell id="5EtZExTbexmg5QgoC88u-72" value="" style="rounded=1;whiteSpace=wrap;html=1;rotation=90;" vertex="1" parent="1">
          <mxGeometry x="708.75" y="427.16" width="37.5" height="20" as="geometry" />
        </mxCell>
        <mxCell id="5EtZExTbexmg5QgoC88u-74" value="" style="endArrow=classic;html=1;rounded=0;" edge="1" parent="1">
          <mxGeometry width="50" height="50" relative="1" as="geometry">
            <mxPoint x="723" y="456.15999999999997" as="sourcePoint" />
            <mxPoint x="133" y="456.15999999999997" as="targetPoint" />
          </mxGeometry>
        </mxCell>
        <mxCell id="5EtZExTbexmg5QgoC88u-75" value="Balance too low or &lt;br&gt;Account not connected." style="text;html=1;align=center;verticalAlign=middle;resizable=0;points=[];autosize=1;strokeColor=none;fillColor=none;" vertex="1" parent="1">
          <mxGeometry x="325" y="421.15999999999997" width="150" height="40" as="geometry" />
        </mxCell>
        <mxCell id="5EtZExTbexmg5QgoC88u-76" value="" style="rounded=1;whiteSpace=wrap;html=1;rotation=90;" vertex="1" parent="1">
          <mxGeometry x="108.77" y="464.94" width="37.77" height="20" as="geometry" />
        </mxCell>
        <mxCell id="5EtZExTbexmg5QgoC88u-77" value="" style="endArrow=classic;html=1;rounded=0;entryX=0.75;entryY=0;entryDx=0;entryDy=0;exitX=0.25;exitY=0;exitDx=0;exitDy=0;" edge="1" parent="1">
          <mxGeometry width="50" height="50" relative="1" as="geometry">
            <mxPoint x="136.65499999999997" y="465.49750000000006" as="sourcePoint" />
            <mxPoint x="137" y="485.15999999999997" as="targetPoint" />
            <Array as="points">
              <mxPoint x="169" y="465.15999999999997" />
              <mxPoint x="169" y="486.15999999999997" />
            </Array>
          </mxGeometry>
        </mxCell>
        <mxCell id="5EtZExTbexmg5QgoC88u-78" value="Failed Adding Minter" style="text;html=1;align=center;verticalAlign=middle;resizable=0;points=[];autosize=1;strokeColor=none;fillColor=none;" vertex="1" parent="1">
          <mxGeometry x="161" y="459.93999999999994" width="130" height="30" as="geometry" />
        </mxCell>
      </root>
    </mxGraphModel>
  </diagram>
</mxfile>
